<?xml version="1.0" encoding="utf-8"?>
<!-- Generator: Adobe Illustrator 23.1.0, SVG Export Plug-In . SVG Version: 6.00 Build 0)  -->
<svg version="1.1" id="Layer_1" xmlns="http://www.w3.org/2000/svg" xmlns:xlink="http://www.w3.org/1999/xlink" x="0px" y="0px"
	 viewBox="0 0 1920 1920" style="enable-background:new 0 0 1920 1920;" xml:space="preserve">
<style type="text/css">
	.st0{fill:#FFFFFF;stroke:#000000;stroke-width:18;stroke-miterlimit:10;}
	.st1{fill:#FFFFFF;stroke:#000000;stroke-width:18;stroke-linejoin:round;stroke-miterlimit:10;}
	.st2{fill:#FFFFFF;}
	.st3{fill:none;stroke:#000000;stroke-width:18;stroke-linecap:round;stroke-linejoin:round;stroke-miterlimit:10;}
	.st4{fill:none;stroke:#000000;stroke-width:18;stroke-miterlimit:10;}
	.st5{fill:none;stroke:#000000;stroke-width:18;stroke-linecap:round;stroke-miterlimit:10;}
</style>
<g>
	<polyline class="st0" points="1250.75,1316.26 1388.46,1236.76 1388.46,733.92 952.98,482.5 517.51,733.92 517.51,1236.76 
		678.39,1329.65 	"/>
	<polygon class="st1" points="1212.39,547.14 707.61,547.14 455.22,992.14 707.61,1437.15 1212.39,1437.15 1464.78,992.14 	"/>
	<g id="XMLID_1_">
		<g>
			<path class="st2" d="M663.17,1125.1c0.4,2.13,0.34,4.22-0.39,6.3L663.17,1125.1z"/>
		</g>
		<g>
			<polyline class="st3" points="948.55,665.71 677.43,1028.51 668.39,1040.6 			"/>
			<line class="st4" x1="1217.35" y1="1016.04" x2="948.55" y2="665.71"/>
			<line class="st4" x1="1231.38" y1="1034.32" x2="1217.43" y2="1016.14"/>
			<path class="st4" d="M662.78,1131.4c0.73-2.08,0.79-4.17,0.39-6.3c-3.48-18.3-41.34-40.27,14.26-96.59
				c18.06-18.3,45.98-40.22,88.15-66.82c1.89-1.19,3.8-2.35,5.73-3.47c63.73-37.14,144.76-35.75,186.66-35.73
				c0,0,0.32,0.02,0.95,0.06c0.03,0,0.06,0,0.09,0c11.16,0.66,109.94,7.33,183.15,39.02c17.15,7.43,32.89,16.23,45.78,26.64
				c7.06,5.71,16.9,12.3,29.41,27.83l0.08,0.1c8.51,10.57,15.8,19.59,21.77,27.57c11.5,15.35,18.1,26.83,19.1,37.96
				c2.25,25.11-8.11,36.88-12.97,47.96"/>
			<path class="st4" d="M1158.58,1073.91c7.68,4.88,18.3,11.91,37.87,26.97"/>
			<path class="st4" d="M1001.76,1025.08c0.03,0,0.07,0.01,0.1,0.01c0.01,0,0.02,0,0.03,0c23.5,1.8,53.02,5.65,82.03,13.75
				c0.2,0.06,0.4,0.11,0.6,0.17"/>
			<path class="st4" d="M830.48,1035.39c30.27-8.5,58.2-11.02,82.4-11.68c0.25-0.01,0.5-0.01,0.75-0.02"/>
			<path class="st4" d="M716.37,1096.53c10.32-9.65,22.89-19.36,38.35-28.85"/>
			<path class="st4" d="M716.08,1096.8c0.1-0.09,0.19-0.18,0.29-0.26"/>
			<polyline class="st4" points="1142.08,961.76 1172.18,1437.14 1172.19,1437.31 			"/>
			<polyline class="st4" points="1238.58,1044.17 1245.33,1129.63 1262.61,1348.6 			"/>
			<polyline class="st4" points="668.36,1041.09 663.17,1125.1 662.78,1131.4 649.98,1338.41 			"/>
			<polyline class="st4" points="771.38,958.34 752.67,1437.14 752.66,1437.36 			"/>
			<line class="st4" x1="912.88" y1="1023.71" x2="958.92" y2="922.55"/>
			<polyline class="st4" points="1001.89,1025.16 1001.86,1025.09 959.01,922.55 			"/>
			<line class="st4" x1="1083.91" y1="1038.67" x2="1142.08" y2="961.76"/>
			<line class="st4" x1="830.47" y1="1035.79" x2="771.38" y2="958.34"/>
			<polyline class="st4" points="959.01,922.55 963.84,1437.14 963.84,1437.45 			"/>
			<polyline class="st4" points="1001.89,1025.09 1001.89,1025.16 1013.18,1437.14 1013.19,1437.36 			"/>
			<polyline class="st4" points="1083.91,1038.67 1083.92,1038.84 1099.02,1437.14 1099.03,1437.41 			"/>
			<polyline class="st4" points="912.88,1023.71 913.27,1437.14 913.27,1437.31 			"/>
			<polyline class="st4" points="830.48,1035.39 830.47,1035.79 819.11,1437.14 819.1,1437.36 			"/>
			<polyline class="st4" points="1196.12,1101.32 1196.45,1100.88 1238.58,1044.17 			"/>
			<line class="st4" x1="1219.33" y1="1424.91" x2="1196.45" y2="1100.88"/>
			<line class="st4" x1="702.88" y1="1428.8" x2="716.37" y2="1096.54"/>
			<polyline class="st4" points="716.37,1096.54 716.37,1096.53 668.36,1041.09 			"/>
			<line class="st4" x1="771.38" y1="958.34" x2="754.72" y2="1067.68"/>
			<polyline class="st4" points="1142.08,961.76 1158.58,1073.91 1158.64,1074.3 			"/>
			<polyline class="st4" points="1158.64,1074.3 1181.39,1437.14 1181.41,1437.5 			"/>
			<polyline class="st4" points="754.72,1067.68 739.73,1437.14 739.72,1437.4 			"/>
			<polyline class="st5" points="1212.39,1437.14 1181.39,1437.14 1172.18,1437.14 1099.02,1437.14 1013.18,1437.14 963.84,1437.14 
				913.27,1437.14 819.11,1437.14 752.67,1437.14 739.73,1437.14 707.61,1437.14 			"/>
		</g>
	</g>
</g>
</svg>
